# xmcd CD database file
#
# Track frame offsets:
#	150
#	19715
#	32322
#	43415
#	56610
#	77985
#	91020
#	106392
#	118690
#	134062
#	156500
#	171122
#	199147
#	212250
#	225927
#	245250
#
# Disc length: 3383 seconds
#
# Revision: 0
# Processed by: cddbd v1.5.1PL2 Copyright (c) Steve Scherf et al.
# Submitted via: CDex 1.51
#
DISCID=ce0d3510
DTITLE=Various Artist - Just Jazz
DYEAR=1992
DGENRE=Jazz
TTITLE0=Helen Merrill - You'd Be So Nice To Come Home To
TTITLE1=Charlie Parker - Summer Time
TTITLE2=Billie Holiday - I Cried For You
TTITLE3=Ella Fitzgerald - Close Your Eyes
TTITLE4=Stan Getz - O Grande Amor
TTITLE5=Shirley Horn - The Great City
TTITLE6=Oscar Peterson - All Of Me
TTITLE7=Dinah Washington - Unforgettable
TTITLE8=Roy Elridge - I Can't Get Started
TTITLE9=Oscar Peterson - Blues Of The Prairies
TTITLE10=Sarah Vaughan - Just One Of Those Things
TTITLE11=Count Basie - Plymouth Rock
TTITLE12=Anita O'Day - Old Devil Moon
TTITLE13=Sarah Vaughan - How High The Moon
TTITLE14=Clifford Brown - Take The A Train
TTITLE15=Dinah Washington - Surprise Party
EXTD=YEAR: 1992
EXTT0=
EXTT1=
EXTT2=
EXTT3=
EXTT4=
EXTT5=
EXTT6=
EXTT7=
EXTT8=
EXTT9=
EXTT10=
EXTT11=
EXTT12=
EXTT13=
EXTT14=
EXTT15=
PLAYORDER=
